<svg width="23" height="14" viewBox="0 0 23 14" fill="none" xmlns="http://www.w3.org/2000/svg">
<path fill-rule="evenodd" clip-rule="evenodd" d="M10.7972 0.0224558C6.99985 0.246286 3.4158 2.32696 0.55843 5.9664C-0.187643 6.91667 -0.187059 7.0855 0.565706 8.04689C3.4172 11.6888 7.01359 13.7682 10.8289 13.9812C15.1471 14.2223 19.2272 12.1353 22.4416 8.04114C23.1876 7.09088 23.1871 6.92204 22.4343 5.96066C20.3513 3.30033 17.8731 1.47253 15.1325 0.575277C14.2812 0.296546 13.2498 0.0928851 12.4431 0.0441405C11.5628 -0.00901449 11.373 -0.0114954 10.7972 0.0224558ZM12.4499 2.16143C13.7407 2.40998 14.9811 3.3081 15.6529 4.48068C16.4636 5.89574 16.5492 7.60745 15.8814 9.05385C15.6208 9.61829 15.3718 9.98541 14.9428 10.4376C12.5421 12.9684 8.4518 12.1947 7.05944 8.9463C6.55697 7.77404 6.5475 6.34207 7.03416 5.12015C7.50762 3.93135 8.53717 2.89044 9.70663 2.41829C10.596 2.05925 11.4862 1.97587 12.4499 2.16143ZM11.0284 4.38323C10.2981 4.54481 9.65161 5.01085 9.28141 5.64274C9.00924 6.10726 8.91794 6.45215 8.92108 7.00377C8.92418 7.53606 8.97048 7.75074 9.17847 8.19707C9.36961 8.60715 9.92782 9.17637 10.3371 9.37856C11.7784 10.0905 13.4547 9.36634 13.9734 7.80776C14.1218 7.36189 14.1259 6.66288 13.9829 6.19785C13.6565 5.13655 12.7036 4.39702 11.6123 4.35792C11.39 4.34997 11.1272 4.36137 11.0284 4.38323Z" fill="black" fill-opacity="0.5"/>
</svg>
