<svg width="16" height="18" viewBox="0 0 16 18" fill="none" xmlns="http://www.w3.org/2000/svg">
<path fill-rule="evenodd" clip-rule="evenodd" d="M7.42088 0.0118952C6.55568 0.104935 5.72722 0.366359 5.00541 0.77415C4.60411 1.00089 3.8701 1.62086 3.60165 1.95981C3.21897 2.44306 2.9583 2.95071 2.78893 3.54271C2.71168 3.81269 2.70156 3.98248 2.68473 5.2927L2.66611 6.74369H2.22029C1.95438 6.74369 1.67573 6.76543 1.52972 6.79755C0.81141 6.95559 0.258143 7.42441 0.0700278 8.03439C-0.0233426 8.33711 -0.0233426 16.4065 0.0700278 16.7092C0.258143 17.3192 0.81141 17.788 1.52972 17.946C1.74424 17.9932 2.54463 17.9999 8.00392 17.9999C14.8595 17.9999 14.4558 18.0124 14.9642 17.7835C15.4425 17.5682 15.8544 17.0906 15.9574 16.6319C15.9848 16.5099 16 14.9832 16 12.3392C16 7.87378 16.009 8.05511 15.7664 7.65076C15.6176 7.40278 15.256 7.09137 14.9642 6.96002C14.6112 6.8011 14.299 6.74369 13.7876 6.74369H13.3417L13.3231 5.2927C13.3063 3.98248 13.2962 3.81269 13.2189 3.54271C12.9607 2.64018 12.5117 1.95837 11.7574 1.32331C10.984 0.672106 10.1756 0.293441 9.12837 0.0917789C8.78071 0.0248398 7.74934 -0.0234211 7.42088 0.0118952ZM8.7129 1.55241C9.10496 1.62262 9.60825 1.79551 9.91573 1.96562C10.7251 2.41337 11.3282 3.16841 11.4987 3.94737C11.5259 4.07158 11.5438 4.66879 11.5438 5.44867V6.74369H8.00392H4.46401L4.46472 5.4334C4.46551 4.00253 4.47955 3.88504 4.7091 3.38358C5.12669 2.47137 6.10886 1.77131 7.27512 1.55456C7.60683 1.49293 8.37424 1.49177 8.7129 1.55241ZM8.61216 9.84393C9.22948 10.0379 9.6494 10.4745 9.75589 11.033C9.85309 11.5428 9.5841 12.1007 9.08655 12.4212L8.88216 12.5529L8.86991 13.5322L8.85767 14.5116L8.7309 14.664C8.32755 15.149 7.45944 15.0815 7.19383 14.5445C7.14114 14.4381 7.12936 14.2441 7.12936 13.4847V12.5552L6.918 12.4196C6.42708 12.1044 6.15513 11.5409 6.25109 11.0377C6.40239 10.2441 7.22631 9.68884 8.14968 9.75831C8.28712 9.76865 8.49522 9.80717 8.61216 9.84393Z" fill="black" fill-opacity="0.5"/>
</svg>
