<svg width="16" height="18" viewBox="0 0 16 18" fill="none" xmlns="http://www.w3.org/2000/svg">
<path fill-rule="evenodd" clip-rule="evenodd" d="M7.50211 0.0104312C6.35759 0.149806 5.39911 0.612116 4.6033 1.40865C3.89654 2.11605 3.48905 2.87111 3.28121 3.85845C3.19383 4.27337 3.19383 5.20242 3.28121 5.61735C3.48926 6.60574 3.89789 7.36239 4.6033 8.06552C5.31955 8.77946 6.10231 9.19773 7.1109 9.40549C7.5254 9.49087 8.46397 9.4908 8.89767 9.40531C9.85739 9.2162 10.6526 8.79494 11.3658 8.09775C12.0821 7.39756 12.5086 6.61549 12.7188 5.61735C12.8062 5.20246 12.8062 4.27337 12.7188 3.85845C12.5822 3.20941 12.3289 2.60579 11.966 2.06437C11.7421 1.73032 11.0473 1.04069 10.7177 0.825294C10.1444 0.450684 9.52636 0.193462 8.91687 0.0758975C8.63026 0.0205977 7.7523 -0.0200329 7.50211 0.0104312ZM6.08894 10.5977C4.09957 10.8361 2.30331 11.9539 1.14685 13.6731C0.468931 14.6809 0.0801477 15.8673 0.0111183 17.1387C-0.00997108 17.5274 -0.00566783 17.5733 0.0647841 17.7099C0.115783 17.8088 0.188226 17.882 0.281723 17.9292C0.421098 17.9995 0.475369 18 8 18C15.5246 18 15.5789 17.9995 15.7183 17.9292C15.8118 17.882 15.8842 17.8088 15.9352 17.7099C16.0057 17.5733 16.01 17.5274 15.9889 17.1387C15.8947 15.4049 15.2263 13.8845 14.0112 12.6402C12.8597 11.4611 11.3714 10.7416 9.74775 10.5791C9.20814 10.5251 6.58332 10.5385 6.08894 10.5977Z" fill="black" fill-opacity="0.5"/>
</svg>
