<svg width="28" height="28" viewBox="0 0 28 28" fill="none" xmlns="http://www.w3.org/2000/svg">
<path fill-rule="evenodd" clip-rule="evenodd" d="M12.7071 0.0322168C7.23147 0.565284 2.54648 4.24783 0.765783 9.41831C-0.756974 13.8399 0.0174545 18.6837 2.85542 22.4886C3.36299 23.1691 4.85209 24.6585 5.537 25.1708C7.48777 26.6297 9.62348 27.519 12.0872 27.8982C12.9687 28.0339 15.036 28.0339 15.9175 27.8982C17.5106 27.653 18.7615 27.2637 20.1582 26.5783C22.8844 25.2403 25.0299 23.1429 26.4237 20.4531C27.5466 18.2859 28.0812 15.916 27.99 13.5085C27.8534 9.90005 26.432 6.6285 23.8992 4.09257C21.7414 1.93203 19.0536 0.583364 15.9722 0.114944C15.2885 0.0110146 13.4132 -0.0364848 12.7071 0.0322168ZM15.1515 5.83953C16.9482 6.11729 18.3486 7.0389 19.0002 8.37234C19.3347 9.05711 19.4428 9.57938 19.4041 10.3256C19.3713 10.9594 19.2623 11.3483 18.974 11.8597C18.6541 12.4272 18.3645 12.7445 17.1138 13.8978C16.4261 14.5319 15.7776 15.1556 15.6728 15.2837C15.4235 15.5883 15.2515 15.9909 15.0971 16.6313C15.0281 16.9176 14.9273 17.2404 14.8733 17.3487C14.5037 18.0886 13.3776 18.2144 12.7911 17.5814C12.4909 17.2574 12.4426 17.0936 12.4463 16.4122C12.4502 15.6834 12.5435 15.2632 12.8313 14.6796C13.1098 14.1147 13.4855 13.69 14.643 12.6316C16.1787 11.2274 16.4161 10.8955 16.4191 10.1481C16.4214 9.53818 16.2612 9.14471 15.8378 8.72083C15.3975 8.27997 14.8618 8.08603 14.0844 8.08603C12.7422 8.08603 12.0568 8.66994 11.4661 10.3168C11.1956 11.071 10.9594 11.387 10.5327 11.5652C10.2411 11.687 9.73954 11.6775 9.43919 11.5444C9.12697 11.4062 8.78082 11.0469 8.66356 10.7395C8.53491 10.4022 8.57945 9.77711 8.77272 9.20865C9.25112 7.8013 10.4428 6.66214 12.02 6.10447C12.8127 5.82413 14.2599 5.70169 15.1515 5.83953ZM14.4613 19.0991C15.0377 19.315 15.422 19.8389 15.4673 20.4705C15.5176 21.1731 15.2404 21.7028 14.6513 22.0295C14.3868 22.1762 14.3097 22.192 13.8656 22.1916C13.4386 22.1912 13.3367 22.1718 13.0995 22.0458C12.5453 21.7516 12.2493 21.2761 12.2448 20.673C12.2415 20.2267 12.2847 20.056 12.4799 19.7446C12.8898 19.0909 13.7185 18.8208 14.4613 19.0991Z" fill="#FFD74A"/>
</svg>
