<svg width="25" height="25" viewBox="0 0 25 25" fill="none" xmlns="http://www.w3.org/2000/svg">
<path fill-rule="evenodd" clip-rule="evenodd" d="M5.8228 0.0539441C5.21497 0.192683 5.01161 0.254365 4.59921 0.42523C2.40459 1.33454 0.703463 3.61975 0.178446 6.3639C-0.285733 8.79036 0.149178 11.1055 1.55924 13.7139C3.12934 16.6184 6.09737 19.9462 9.83616 22.9942C10.7317 23.7242 12.4332 25 12.5113 25C12.5855 25 14.1987 23.798 15.1221 23.0545C17.4834 21.1535 19.334 19.3439 21.0235 17.2841C22.2829 15.7486 23.0435 14.6105 23.7034 13.2739C24.6125 11.4328 25.0042 9.91469 25 8.24845C24.9944 6.06279 24.3138 4.04907 23.0509 2.48148C21.9708 1.14088 20.6224 0.316645 19.069 0.0475428C18.505 -0.0501547 17.2991 0.00985165 16.7617 0.16241C15.1679 0.614702 13.7198 1.73604 12.8217 3.21323C12.6602 3.47886 12.517 3.69651 12.5036 3.69681C12.4901 3.69711 12.36 3.49615 12.2145 3.25026C11.8903 2.70248 11.2311 1.9169 10.7405 1.49356C10.0536 0.900735 9.08733 0.382394 8.21618 0.139317C7.81499 0.0273811 6.19276 -0.0304717 5.8228 0.0539441Z" fill="#FF4343"/>
</svg>
