<svg width="28" height="21" viewBox="0 0 28 21" fill="none" xmlns="http://www.w3.org/2000/svg">
<path fill-rule="evenodd" clip-rule="evenodd" d="M0.723898 0.0391164C0.467903 0.103681 0.330328 0.196587 0.167034 0.415325C-0.046223 0.700976 -0.0502178 1.15886 0.15784 1.47335C0.237791 1.59421 2.04158 3.66431 4.16632 6.07361C6.29107 8.48286 8.02946 10.4736 8.02946 10.4974C8.02946 10.5212 6.29107 12.5119 4.16632 14.9212C2.04158 17.3305 0.240965 19.3956 0.1649 19.5103C-0.0321044 19.8075 -0.0531182 20.1343 0.104704 20.4472C0.263949 20.7628 0.512228 20.9335 0.877124 20.9784C1.03363 20.9975 2.4299 21.0055 3.97994 20.996C6.63779 20.9797 6.80798 20.9727 6.97046 20.8722C7.19685 20.7322 15.572 11.2313 15.7318 10.9331C15.8731 10.6695 15.8883 10.4077 15.7781 10.1382C15.6857 9.91257 7.35407 0.423822 7.03744 0.183786L6.81625 0.0160853L3.85216 0.00691759C2.22189 0.00188656 0.814192 0.016365 0.723898 0.0391164ZM12.763 0.0703646C12.5079 0.163271 12.2103 0.485928 12.1588 0.725572C12.139 0.817584 12.1389 1.00222 12.1584 1.13582C12.2013 1.42796 11.8576 1.02039 16.5853 6.3842C18.5613 8.62613 20.178 10.4774 20.178 10.4982C20.178 10.519 18.4389 12.5083 16.3133 14.9189C14.1876 17.3294 12.3842 19.3872 12.3057 19.4918C12.1877 19.6489 12.1628 19.7416 12.162 20.027C12.1612 20.3197 12.1844 20.4034 12.3144 20.5777C12.628 20.998 12.4556 20.9787 15.889 20.9787H18.9603L19.1502 20.839C19.4331 20.6308 27.8417 11.0643 27.9287 10.8515C28.0238 10.619 28.0238 10.3758 27.9287 10.1433C27.8417 9.93057 19.4333 0.364065 19.1503 0.155836L18.9603 0.0160853L15.9711 0.0033961C13.4991 -0.00711316 12.9441 0.004514 12.763 0.0703646Z" fill="#B741FF"/>
</svg>
