<svg width="24" height="24" viewBox="0 0 24 24" fill="none" xmlns="http://www.w3.org/2000/svg">
<path fill-rule="evenodd" clip-rule="evenodd" d="M7.79863 0.119647C6.72693 0.519056 5.07842 1.52345 4.46881 2.14841C4.01689 2.61172 3.92004 3.21993 4.17197 4.01277C4.36421 4.6177 4.37988 5.4781 4.20908 6.04788C3.84168 7.27348 2.86432 8.1471 1.64129 8.343C0.998886 8.44586 0.590176 8.72686 0.34501 9.23416C0.120225 9.69933 -0.0404152 11.246 0.00895847 12.4703C0.0698493 13.9819 0.204701 14.5098 0.630937 14.9059C0.885817 15.1427 1.10224 15.2311 1.71641 15.3492C2.40193 15.4811 2.82566 15.7215 3.34383 16.2728C4.00687 16.9781 4.26626 17.6435 4.26221 18.6285C4.26025 19.1031 4.24027 19.2165 4.06676 19.7386C3.63832 21.0275 3.86436 21.4973 5.44697 22.6075C5.98498 22.985 7.04431 23.5646 7.6396 23.8072C8.25291 24.0573 8.60454 24.0631 9.04569 23.8304C9.24389 23.7258 9.42261 23.5795 9.54193 23.4241C10.1236 22.6663 10.5211 22.3499 11.1916 22.1108C12.4264 21.6705 13.7646 22.0922 14.6214 23.1915C15.1002 23.806 15.6992 24.0242 16.323 23.8115C16.8155 23.6436 17.8994 23.0464 18.5743 22.5711C19.4311 21.9677 19.8689 21.5481 20.0144 21.1911C20.1992 20.7375 20.2002 20.494 20.0192 19.9236C19.8172 19.2867 19.765 18.5065 19.8876 17.9554C20.1591 16.7351 21.0422 15.7979 22.1978 15.5036C23.0251 15.293 23.0586 15.2783 23.3424 15.0045C23.5413 14.8126 23.647 14.6583 23.7192 14.4545C24.1012 13.3768 24.0912 10.2752 23.7029 9.3735C23.5756 9.07801 23.307 8.76556 23.0679 8.6351C22.9832 8.58885 22.7584 8.5168 22.5682 8.47493C21.2395 8.18246 20.311 7.27919 19.9918 5.96859C19.8747 5.48762 19.9129 4.58588 20.0692 4.14492C20.2265 3.70122 20.2298 3.17563 20.0776 2.82343C19.9347 2.49316 19.8061 2.34832 19.2501 1.89198C18.1504 0.98935 16.435 0.0713862 15.7317 0.00917016C15.2084 -0.0370822 14.9921 0.0749806 14.3366 0.73187C13.908 1.16136 13.6812 1.3451 13.3961 1.49384C12.504 1.95912 11.5279 1.95875 10.6212 1.49273C10.312 1.33384 10.1117 1.17261 9.67388 0.730495C9.2492 0.301591 9.06167 0.149302 8.87629 0.0825925C8.54329 -0.0371879 8.18651 -0.0249244 7.79863 0.119647ZM12.9589 7.8902C14.0011 8.18928 14.7998 8.79156 15.3639 9.70387C16.5627 11.6423 16.0298 14.2616 14.1768 15.5385C13.495 16.0084 12.879 16.1946 12.0068 16.1946C10.8751 16.1946 9.96301 15.8014 9.18175 14.9767C8.40053 14.152 8.02802 13.1892 8.02802 11.9946C8.02802 11.0739 8.20449 10.4236 8.6496 9.70387C9.25205 8.72967 10.189 8.06622 11.2807 7.84083C11.7071 7.75276 12.5683 7.77808 12.9589 7.8902Z" fill="black"/>
</svg>
